<svg xmlns="http://www.w3.org/2000/svg" enable-background="new 0 0 512 512" viewBox="0 0 512 512" id="firewall">
  <rect width="151.1" height="81.6" x="27.1" y="320.4" fill="#0d3d3b"></rect>
  <rect width="151.1" height="81.6" x="202.7" y="320.4" fill="#0d3d3b"></rect>
  <rect width="106.7" height="81.6" x="378.2" y="320.4" fill="#0d3d3b"></rect>
  <rect width="151.1" height="81.6" x="333.8" y="424.4" fill="#0d3d3b"></rect>
  <rect width="151.1" height="81.6" x="158.2" y="424.4" fill="#0d3d3b"></rect>
  <rect width="106.7" height="81.6" x="27.1" y="424.4" fill="#0d3d3b"></rect>
  <linearGradient id="a" x1="133.572" x2="344.976" y1="35.287" y2="315.989" gradientUnits="userSpaceOnUse">
    <stop offset="0" stop-color="#00867e"></stop>
    <stop offset="1" stop-color="#14a442"></stop>
  </linearGradient>
  <path fill="url(#a)" d="M363.1,300.7c15.2-21.4,24.2-47.6,24.2-75.8c0-3.6-0.7-13.8-0.7-13.8c-4-52.2-28.3-85-49.8-113.8
	c-19.9-26.7-37-49.8-37-83.9c0-2.7-1.5-5.2-4-6.5c-2.4-1.3-5.4-1.1-7.6,0.6c-32.2,23.1-59.1,61.9-68.5,99c-6.5,25.8-7.4,54.8-7.5,74
	c-29.8-6.4-36.5-50.9-36.6-51.3c-0.3-2.3-1.7-4.3-3.8-5.4c-2.1-1.1-4.5-1.2-6.6-0.1c-1.6,0.8-38.3,19.4-40.4,94
	c-0.1,2.5-0.2,5-0.2,7.5c0,28.2,9,54.4,24.2,75.8H363.1z"></path>
</svg>
